<?xml version="1.0" encoding="UTF-8"?>
<!DOCTYPE svg PUBLIC "-//W3C//DTD SVG 1.1//EN" "http://www.w3.org/Graphics/SVG/1.1/DTD/svg11.dtd">
<!-- Creator: CorelDRAW X7 -->
<svg xmlns="http://www.w3.org/2000/svg" xml:space="preserve" width="62.2107mm" height="25.2449mm" version="1.1" style="shape-rendering:geometricPrecision; text-rendering:geometricPrecision; image-rendering:optimizeQuality; fill-rule:evenodd; clip-rule:evenodd"
viewBox="0 0 4341 1762"
 xmlns:xlink="http://www.w3.org/1999/xlink">
 <defs>
  <style type="text/css">
   <![CDATA[
    .fil1 {fill:#009846;fill-rule:nonzero}
    .fil0 {fill:#253452;fill-rule:nonzero}
   ]]>
  </style>
 </defs>
 <g id="Layer_x0020_1">
  <metadata id="CorelCorpID_0Corel-Layer"/>
  <path class="fil0" d="M3218 582c0,99 -15,186 -44,260 -29,75 -70,138 -122,189 -52,51 -112,89 -183,115 -70,26 -145,39 -227,39l-472 0 0 -1185 420 0c92,0 176,11 254,34 77,22 143,57 198,105 56,47 99,107 130,181 31,73 46,160 46,262zm-186 0c0,-77 -10,-142 -32,-197 -22,-55 -52,-99 -92,-134 -39,-35 -86,-61 -141,-77 -54,-17 -114,-25 -180,-25l-228 0 0 887 265 0c58,0 112,-10 162,-29 50,-20 93,-48 130,-86 36,-37 65,-85 86,-142 20,-56 30,-122 30,-197z"/>
  <polygon class="fil0" points="4330,1185 3470,1185 3470,0 4294,0 4294,148 3659,148 3659,508 4243,508 4243,652 3659,652 3659,1039 4330,1039 "/>
  <path class="fil0" d="M750 825c0,58 -7,110 -23,156 -16,46 -40,86 -71,118 -31,33 -70,58 -116,75 -46,18 -99,27 -160,27 -107,0 -192,-26 -255,-77 -62,-52 -104,-134 -125,-246l183 -30c14,71 38,122 73,155 35,33 77,49 126,49 60,0 105,-19 135,-58 31,-38 46,-94 46,-167l0 -676 -230 0 0 -151 417 0 0 825z"/>
  <path class="fil0" d="M2039 1756l-45 -116 -167 0 -43 116 -40 0 145 -373 45 0 144 373 -39 0zm-105 -277c-3,-8 -6,-15 -8,-23 -3,-7 -6,-14 -8,-20 -2,-6 -4,-11 -5,-15 -1,-4 -2,-6 -2,-7 0,1 -1,3 -2,8 -1,4 -3,9 -5,15 -2,6 -5,12 -7,20 -3,7 -6,14 -9,22l-50 131 146 0 -50 -131zm507 87c0,31 -5,58 -14,82 -9,23 -22,43 -38,59 -16,16 -36,29 -58,37 -22,8 -45,12 -71,12l-135 0 0 -373 119 0c28,0 55,4 79,11 24,7 45,18 63,33 17,15 31,34 41,57 9,23 14,50 14,82zm-39 0c0,-27 -4,-50 -11,-69 -8,-19 -19,-35 -33,-47 -14,-12 -31,-21 -51,-26 -20,-6 -41,-9 -65,-9l-80 0 0 309 92 0c22,0 42,-3 60,-10 18,-7 33,-17 46,-30 14,-13 24,-30 31,-50 8,-19 11,-42 11,-68zm252 190l-41 0 -140 -373 41 0 96 268c3,8 5,17 8,25 3,9 5,16 8,23 2,8 4,17 7,25 2,-8 5,-16 7,-24 3,-7 5,-15 8,-23 3,-9 6,-17 9,-26l95 -268 41 0 -139 373zm188 0l0 -373 38 0 0 373 -38 0zm400 -101c0,15 -3,29 -8,42 -6,13 -15,24 -26,34 -12,9 -27,17 -44,22 -18,5 -38,8 -62,8 -43,0 -76,-8 -100,-24 -25,-15 -40,-38 -46,-67l37 -9c3,10 6,20 11,28 5,8 12,16 21,22 8,6 19,11 32,14 12,4 27,5 45,5 14,0 28,-1 41,-4 12,-3 23,-7 32,-13 9,-6 16,-14 22,-23 5,-9 7,-20 7,-33 0,-14 -3,-26 -9,-34 -7,-9 -16,-16 -27,-22 -10,-6 -22,-10 -35,-14 -14,-3 -27,-7 -40,-10 -10,-2 -19,-5 -29,-8 -10,-2 -19,-5 -28,-9 -8,-4 -16,-8 -24,-13 -8,-4 -14,-10 -20,-17 -6,-7 -10,-14 -14,-23 -3,-9 -4,-20 -4,-32 0,-17 3,-32 9,-44 7,-12 16,-22 27,-30 12,-8 26,-14 41,-18 16,-4 33,-5 51,-5 21,0 39,1 54,5 15,4 28,9 38,16 11,7 19,15 26,26 6,10 11,22 14,35l-37 8c-3,-9 -6,-18 -11,-25 -4,-8 -10,-14 -18,-19 -8,-5 -17,-9 -28,-12 -10,-3 -23,-4 -38,-4 -17,0 -31,1 -43,5 -12,3 -21,8 -28,14 -7,6 -12,13 -15,21 -3,8 -5,16 -5,26 0,12 3,21 8,29 5,8 13,15 22,20 9,5 20,10 32,13 12,4 25,7 38,11 11,2 21,5 31,8 11,2 21,6 31,9 10,4 19,8 27,13 8,5 16,11 22,18 6,8 11,16 15,26 3,9 5,21 5,34zm413 -87c0,29 -4,56 -12,79 -8,24 -20,45 -35,61 -15,17 -33,30 -55,40 -22,9 -46,14 -74,14 -29,0 -55,-5 -76,-15 -22,-9 -41,-23 -55,-40 -15,-17 -26,-38 -33,-61 -8,-24 -11,-50 -11,-78 0,-29 4,-55 11,-79 8,-23 19,-43 34,-60 15,-16 33,-29 55,-38 22,-9 47,-13 75,-13 28,0 53,4 75,13 22,9 40,22 55,39 15,16 27,36 34,60 8,23 12,49 12,78zm-40 0c0,-24 -2,-46 -8,-65 -6,-20 -15,-36 -26,-50 -12,-14 -26,-25 -43,-32 -17,-8 -37,-11 -59,-11 -22,0 -42,3 -59,11 -17,7 -32,18 -43,32 -12,14 -20,30 -26,50 -6,19 -8,41 -8,65 0,24 3,45 8,65 6,20 15,37 27,51 11,15 26,26 42,34 17,8 37,12 59,12 24,0 44,-4 61,-12 17,-8 32,-20 43,-34 11,-14 19,-31 24,-51 6,-20 8,-42 8,-65zm348 188l-101 -160 -90 0 0 160 -38 0 0 -373 132 0c21,0 39,3 55,8 16,4 29,11 40,20 11,9 20,20 26,33 5,13 8,27 8,44 0,12 -1,23 -5,34 -4,12 -9,22 -17,32 -8,9 -18,17 -30,24 -12,6 -27,11 -44,14l109 164 -45 0zm-6 -268c0,-12 -3,-23 -7,-32 -4,-9 -10,-17 -19,-23 -8,-7 -18,-11 -29,-14 -12,-4 -25,-5 -39,-5l-91 0 0 153 93 0c16,0 29,-3 41,-7 12,-4 21,-9 29,-16 7,-7 12,-15 16,-25 4,-10 6,-20 6,-31zm384 167c0,15 -3,29 -8,42 -6,13 -15,24 -26,34 -12,9 -26,17 -44,22 -18,5 -38,8 -62,8 -43,0 -76,-8 -100,-24 -25,-15 -40,-38 -46,-67l37 -9c3,10 6,20 11,28 5,8 12,16 21,22 9,6 19,11 32,14 13,4 28,5 45,5 15,0 28,-1 41,-4 12,-3 23,-7 32,-13 9,-6 17,-14 22,-23 5,-9 8,-20 8,-33 0,-14 -4,-26 -10,-34 -7,-9 -16,-16 -26,-22 -11,-6 -23,-10 -36,-14 -14,-3 -27,-7 -40,-10 -10,-2 -19,-5 -29,-8 -9,-2 -19,-5 -27,-9 -9,-4 -17,-8 -25,-13 -8,-4 -14,-10 -20,-17 -6,-7 -10,-14 -13,-23 -4,-9 -5,-20 -5,-32 0,-17 3,-32 9,-44 7,-12 16,-22 28,-30 11,-8 25,-14 40,-18 16,-4 33,-5 52,-5 21,0 39,1 53,5 15,4 28,9 38,16 11,7 19,15 26,26 6,10 11,22 15,35l-38 8c-2,-9 -6,-18 -11,-25 -4,-8 -10,-14 -18,-19 -7,-5 -17,-9 -27,-12 -11,-3 -24,-4 -39,-4 -17,0 -31,1 -43,5 -11,3 -21,8 -28,14 -7,6 -12,13 -15,21 -3,8 -5,16 -5,26 0,12 3,21 8,29 5,8 13,15 22,20 9,5 20,10 32,13 12,4 25,7 38,11 11,2 21,5 32,8 10,2 20,6 30,9 10,4 19,8 27,13 8,5 16,11 22,18 6,8 11,16 15,26 4,9 5,21 5,34z"/>
  <g id="_2601758547424">
   <path class="fil0" d="M1458 143l105 300c48,-23 97,-44 149,-62l-144 -381 -219 0 -369 980c79,-125 182,-250 310,-357l168 -480zm163 464l203 578 192 0 -254 -673c-50,29 -97,61 -141,95z"/>
   <path class="fil1" d="M1465 526c190,-118 424,-196 704,-196 -231,52 -419,144 -570,263 -201,158 -339,362 -431,579l-5 13 -265 0 6 -13c104,-226 288,-477 561,-646z"/>
  </g>
 </g>
</svg>
